<svg xmlns="http://www.w3.org/2000/svg" width="124" height="133" viewBox="0 0 124 133" fill="none"><path d="M111.162 50.7884C111.151 50.2859 110.944 49.8073 110.583 49.4548C110.525 49.3983 110.463 49.3464 110.398 49.2996C109.562 47.9244 108.435 46.7472 107.094 45.8504C105.242 44.6202 103.147 44.0166 101.839 45.6262C101.307 45.5745 100.804 45.5515 100.37 45.5458C100.089 45.5453 99.8082 45.5664 99.5306 45.609C97.9682 44.9996 96.3017 44.9824 95.5784 46.9656C95.3097 47.7558 95.1596 48.5809 95.1328 49.4145C94.8342 49.6329 94.5741 49.8991 94.3632 50.2021C92.853 52.3636 93.0671 56.1863 93.6689 58.595C94.6815 62.6995 99.0793 65.9302 102.887 64.7172C103.206 64.6599 103.51 64.5365 103.778 64.355C105.809 64.7345 108.025 64.0561 109.796 61.9119C111.025 60.3589 111.803 58.5009 112.043 56.5397C112.284 54.5786 111.979 52.5894 111.162 50.7884ZM102.337 54.5767C102.285 53.6723 102.302 52.7652 102.389 51.8634C102.508 51.9119 102.624 51.9675 102.736 52.0301C102.802 52.0709 102.866 52.115 102.927 52.1623C103.06 53.0189 103.02 54.1973 102.32 54.5767H102.337ZM95.6363 56.5312C95.5977 56.1185 95.5823 55.704 95.59 55.2896C95.9808 56.6756 96.4999 58.0226 97.1408 59.3135C97.4541 60.2261 97.9006 61.088 98.4659 61.8717C98.1836 61.6907 97.9183 61.4848 97.6731 61.2566C96.348 60.0609 95.7809 58.2443 95.6189 56.5312H95.6363ZM108.5 59.7734C108.011 60.5747 107.316 61.2316 106.486 61.6762C107.017 60.8397 107.474 59.9587 107.852 59.0434C107.95 58.8422 108.037 58.641 108.124 58.434C108.282 58.3046 108.4 58.1334 108.464 57.9401C108.529 57.7469 108.537 57.5395 108.488 57.3418V57.2901C109.143 56.7293 109.569 55.9505 109.686 55.0999L109.79 54.9389C109.851 56.6442 109.396 58.3284 108.482 59.7734H108.5Z" fill="#FCFCD4"></path><path d="M41.81 31.7089C42.2989 31.5717 42.7143 31.2498 42.9673 30.8122C43.0067 30.7436 43.0415 30.6726 43.0715 30.5995C44.2054 29.4587 45.0744 28.0852 45.6175 26.5755C46.3582 24.483 46.4276 22.3215 44.5355 21.4593C44.4487 20.9361 44.3445 20.4475 44.2404 20.0279C44.1753 19.7562 44.0862 19.4907 43.9742 19.2346C44.1825 17.579 43.7774 15.9751 41.6596 15.7854C40.8242 15.7221 39.984 15.7802 39.1656 15.9579C38.8768 15.7274 38.5525 15.545 38.205 15.4175C35.7226 14.5035 32.0539 15.659 29.8493 16.8374C26.1054 18.8379 24.0627 23.8736 26.1806 27.2308C26.3139 27.5269 26.5115 27.7899 26.7593 28.0011C26.8981 30.0476 28.1075 32.0251 30.642 33.1748C32.4609 33.9664 34.4632 34.2482 36.4319 33.9898C38.4005 33.7314 40.2604 32.9426 41.81 31.7089ZM35.9367 24.1841C36.8061 23.9063 37.6961 23.6968 38.5985 23.5575C38.5814 23.684 38.5543 23.8089 38.5175 23.9311C38.5175 24.0059 38.4654 24.0749 38.4422 24.1496C37.6263 24.5175 36.469 24.7589 35.9367 24.1841ZM32.3664 18.2228C32.7594 18.084 33.1591 17.9651 33.5642 17.8664C32.3071 18.5901 31.1197 19.4272 30.0171 20.367C29.2037 20.8921 28.4742 21.5354 27.8529 22.2755C27.9599 21.9584 28.0935 21.6508 28.2522 21.3558C29.0854 19.8037 30.7288 18.8034 32.349 18.2228H32.3664ZM32.4011 31.4043C31.5011 31.131 30.6904 30.6251 30.0518 29.9384C30.9949 30.2425 31.963 30.4637 32.945 30.5995C33.1649 30.6455 33.3848 30.68 33.6047 30.7087C33.7706 30.8286 33.9671 30.8997 34.1718 30.9139C34.3764 30.9282 34.5809 30.8849 34.762 30.7892H34.8141C35.5229 31.2837 36.3897 31.5026 37.2502 31.4043L37.4296 31.4618C35.779 31.9395 34.0229 31.9194 32.3838 31.4043H32.4011Z" fill="#FCFCD4"></path><path d="M89.1727 39.3545C89.141 38.9234 89.0333 38.5012 88.8545 38.1071C88.8378 37.6081 88.7153 37.1182 88.4949 36.6694C88.2746 36.2207 87.9613 35.8232 87.5756 35.503C85.9091 34.0831 82.5877 33.3531 81.1642 35.1121C79.4708 35.3808 77.8762 36.0798 76.535 37.1414C76.3194 37.3568 76.1984 37.6482 76.1984 37.9519C76.1984 38.2556 76.3194 38.547 76.535 38.7624C76.7433 38.9406 76.9516 39.1074 77.1657 39.2626C76.7618 39.9068 76.5162 40.6364 76.4488 41.3924C76.3815 42.1484 76.4942 42.9096 76.778 43.6142C77.2257 44.6831 78.0282 45.5676 79.0521 46.1206C79.3757 46.4998 79.8045 46.7761 80.2849 46.9151C80.7654 47.0541 81.2764 47.0497 81.7544 46.9024C82.5673 46.9607 83.3837 46.8571 84.1558 46.5977C87.0201 45.6205 89.3579 42.4013 89.1727 39.3545ZM83.4846 42.0564C83.1999 41.619 83.0034 41.131 82.9059 40.6192C82.9696 40.4928 83.0274 40.372 83.0853 40.2456C83.2703 40.3825 83.426 40.5547 83.5432 40.7521C83.6605 40.9495 83.7369 41.1682 83.7681 41.3953C83.6869 41.621 83.5922 41.8418 83.4846 42.0564Z" fill="#FCFCD4"></path><path d="M86.6903 67.58C86.6605 67.151 86.5547 66.7307 86.3778 66.3383C86.3605 65.8394 86.2376 65.3497 86.0173 64.9011C85.797 64.4524 85.4841 64.0549 85.099 63.7342C83.4267 62.3085 80.111 61.5785 78.6818 63.3375C76.989 63.6117 75.3952 64.3123 74.0525 65.3725C73.8387 65.5877 73.7189 65.8779 73.7189 66.1802C73.7189 66.4825 73.8387 66.7727 74.0525 66.9879C74.2608 67.1718 74.4749 67.3328 74.6833 67.4938C74.2803 68.1374 74.0358 68.8663 73.9694 69.6214C73.9031 70.3764 74.0168 71.1364 74.3013 71.8397C74.7484 72.9104 75.5509 73.797 76.5755 74.3518C76.8982 74.7305 77.3259 75.0065 77.8054 75.1455C78.2848 75.2846 78.7949 75.2804 79.272 75.1336C80.0867 75.189 80.9045 75.0855 81.6792 74.8289C84.5435 73.8459 86.887 70.6267 86.6903 67.58ZM81.0137 70.2991C80.7338 69.8572 80.5377 69.3682 80.4351 68.8562C80.4987 68.7354 80.5624 68.609 80.6145 68.4825C80.8005 68.6189 80.9573 68.7909 81.0755 68.9883C81.1938 69.1858 81.2711 69.4047 81.3031 69.6322C81.2188 69.8595 81.1222 70.0821 81.0137 70.2991Z" fill="#FCFCD4"></path><path d="M2.59473 55.9851C2.56209 55.5548 2.45644 55.133 2.28225 54.7377C2.26452 54.2389 2.14153 53.7493 1.92124 53.3007C1.70094 52.8521 1.38826 52.4545 1.00343 52.1336C-0.668872 50.7137 -3.98456 49.9836 -5.41383 51.7427C-7.10718 52.0114 -8.70184 52.7104 -10.043 53.7719C-10.2586 53.9874 -10.3796 54.2788 -10.3796 54.5825C-10.3796 54.8862 -10.2586 55.1776 -10.043 55.393C-9.83473 55.5713 -9.62641 55.738 -9.41231 55.8932C-9.8166 56.5373 -10.0619 57.2673 -10.1283 58.0235C-10.1947 58.7798 -10.0802 59.5409 -9.79422 60.2448C-9.35052 61.3163 -8.54693 62.2019 -7.52012 62.7512C-7.19786 63.1305 -6.77016 63.407 -6.29053 63.5461C-5.8109 63.6851 -5.30064 63.6806 -4.8236 63.533C-4.01115 63.5904 -3.19527 63.4888 -2.42219 63.2341C0.453717 62.2511 2.79147 59.0319 2.59473 55.9851ZM-3.08185 58.7272C-3.36653 58.2899 -3.56305 57.8018 -3.6605 57.2901C-3.59685 57.1636 -3.53899 57.0429 -3.48112 56.9164C-3.29469 57.052 -3.13801 57.2238 -3.02062 57.4215C-2.90322 57.6191 -2.82759 57.8385 -2.79832 58.0661C-2.87713 58.2928 -2.97187 58.5137 -3.08185 58.7272Z" fill="#FCFCD4"></path><path d="M4.99001 100.682C4.95673 100.254 4.85109 99.8343 4.67754 99.4407C4.65981 98.9419 4.53682 98.4524 4.31652 98.0038C4.09623 97.5552 3.78354 97.1575 3.39872 96.8366C1.72641 95.411 -1.58926 94.6809 -3.01854 96.4457C-4.71158 96.7154 -6.306 97.4144 -7.64776 98.475C-7.8633 98.6904 -7.98429 98.9818 -7.98429 99.2855C-7.98429 99.5893 -7.8633 99.8807 -7.64776 100.096C-7.43944 100.274 -7.22534 100.441 -7.01703 100.596C-7.42001 101.241 -7.66456 101.971 -7.73091 102.727C-7.79726 103.483 -7.68354 104.244 -7.39894 104.948C-6.9532 106.018 -6.15015 106.903 -5.12483 107.454C-4.80257 107.834 -4.37488 108.11 -3.89525 108.249C-3.41562 108.388 -2.90536 108.384 -2.42832 108.236C-1.61352 108.294 -0.79526 108.19 -0.0211185 107.931C2.849 106.954 5.18676 103.735 4.99001 100.682ZM-0.686566 103.402C-0.966529 102.962 -1.16268 102.475 -1.26522 101.964C-1.20157 101.838 -1.13792 101.717 -1.08584 101.585C-0.899761 101.721 -0.743001 101.893 -0.624752 102.091C-0.506502 102.288 -0.429146 102.507 -0.39724 102.735C-0.48038 102.962 -0.576989 103.185 -0.686566 103.402Z" fill="#FCFCD4"></path><path d="M118.256 15.6647C117.257 14.3459 116.09 13.1614 114.784 12.1408C114.714 12.0029 114.645 11.8707 114.57 11.7385C114.283 11.0014 113.848 10.3304 113.291 9.76668C112.215 8.70895 109.605 7.27181 108.164 8.24332C105.89 7.57074 103.454 8.00188 101.903 10.2898C101.532 10.8565 101.233 11.4667 101.012 12.1064C100.943 12.2788 100.873 12.4455 100.809 12.6237C100.685 12.5145 100.538 12.4332 100.379 12.3854C100.22 12.3376 100.052 12.3244 99.8871 12.3468C99.7224 12.3692 99.5645 12.4265 99.424 12.515C99.2836 12.6034 99.1641 12.7209 99.0735 12.8594C96.1802 17.2916 95.5611 23.1551 99.1776 27.3918C102.794 31.6285 108.83 31.3066 113.21 28.369C115.603 26.7675 117.683 24.7477 119.349 22.4078C120.964 20.0509 119.841 17.7342 118.256 15.6647ZM107.047 22.7067C106.871 22.7101 106.696 22.6748 106.535 22.6033C106.374 22.5317 106.231 22.4257 106.116 22.2928C106.409 22.3899 106.719 22.4278 107.027 22.4041C107.335 22.3804 107.635 22.2956 107.909 22.1548C107.638 22.362 107.349 22.5466 107.047 22.7067ZM104.843 20.9476C104.984 21.3302 105.218 21.6719 105.525 21.9422C104.976 21.7352 104.75 21.4018 104.843 20.9476ZM100.057 24.7245C98.3675 21.8502 98.7378 18.5735 100.092 15.7222V15.8889C99.9877 16.4293 99.901 16.9639 99.8315 17.4583C99.4438 20.1601 99.5306 23.7127 101.018 26.0121C100.656 25.6153 100.334 25.184 100.057 24.7245ZM117.162 21.3615C117.356 20.8485 117.496 20.3167 117.579 19.7749C117.581 20.3308 117.437 20.8776 117.162 21.3615Z" fill="#FCFCD4"></path><path d="M31.6431 49.2478V49.1846C31.1938 47.8997 30.3395 46.7929 29.207 46.0286C28.5118 45.4674 27.7303 45.021 26.8923 44.7064C26.6319 44.5915 26.3716 44.4823 26.1169 44.3845C21.3199 42.5507 16.9164 44.6375 14.9374 48.9546C14.8853 49.0639 14.8332 49.1788 14.7869 49.2938C14.6519 49.6157 14.5304 49.9491 14.4224 50.294C13.6875 52.6625 13.3345 55.6172 14.9374 57.6982C16.5403 59.7792 19.4335 60.8427 21.8812 61.2393C24.6819 61.6935 26.9097 60.7047 29.1549 59.1239C31.4 57.543 32.349 55.5482 32.3953 52.7602C32.3999 51.5495 32.1434 50.3518 31.6431 49.2478ZM22.1648 51.8289C22.1648 51.7025 22.1648 51.5817 22.1648 51.4668C22.263 51.4603 22.3616 51.4603 22.4599 51.4668C22.4795 51.66 22.5104 51.8519 22.5524 52.0416C22.4194 52.1451 22.2863 52.2543 22.1474 52.352C22.1551 52.1528 22.1609 51.9784 22.1648 51.8289ZM18.878 53.2603C18.7908 53.0974 18.7385 52.9182 18.7246 52.7341C18.7106 52.5501 18.7353 52.3652 18.797 52.1911C18.7881 52.555 18.8152 52.9189 18.878 53.2775V53.2603ZM20.07 55.9506C20.2031 56.1289 20.3478 56.3013 20.4982 56.4738C20.1095 56.4906 19.7264 56.3772 19.4104 56.1518C19.6335 56.1025 19.8537 56.0411 20.07 55.9679V55.9506ZM20.7413 48.0464H20.5619C19.9213 48.1366 19.3054 48.3536 18.7507 48.6845C19.4293 48.0268 20.211 47.4832 21.0653 47.0749C21.3328 46.9555 21.6072 46.8518 21.887 46.7644C21.4235 47.1192 21.0343 47.5605 20.7413 48.0636V48.0464ZM28.4605 55.1229C28.5763 54.4282 28.5763 53.7193 28.4605 53.0246C28.5646 52.5877 28.692 52.3808 28.9813 53.0534C29.0483 53.214 29.1609 53.3518 29.3053 53.45C29.1081 54.0513 28.8235 54.6206 28.4605 55.1401V55.1229ZM27.361 47.5175C27.1365 47.5327 26.9214 47.6126 26.7419 47.7474C26.5694 47.398 26.3272 47.0871 26.0302 46.8334C26.2596 46.911 26.4838 47.0032 26.7014 47.1094C26.9271 47.2301 27.1469 47.391 27.361 47.5347V47.5175Z" fill="#FCFCD4"></path><path d="M59.5399 81.3306C58.724 78.7724 56.9013 76.9444 54.7197 75.582C53.2947 73.2497 51.2639 71.3415 48.8406 70.0576C47.0987 69.2118 45.1607 68.8442 43.2276 68.9928C41.2945 69.1413 39.4365 69.8007 37.8462 70.9026L37.6553 70.9601C36.8176 71.3268 36.1158 71.9437 35.6474 72.725C34.3225 74.0796 33.2646 75.6686 32.5284 77.41C30.9718 81.0834 30.4453 85.3833 30.5263 89.3498C30.5957 92.8622 32.5863 94.8569 35.8557 95.8802C37.3881 96.3587 38.9577 96.7106 40.5485 96.9322C43.98 98.3061 48.1347 98.2543 50.8833 96.1389C53.6083 95.2442 55.9929 93.5433 57.7172 91.2641C58.0171 90.8578 58.2915 90.4335 58.5389 89.9936C58.5794 89.9247 58.6141 89.8557 58.6488 89.7809C59.3486 88.4995 59.7875 87.0937 59.9404 85.6438C60.0933 84.1939 59.9572 82.7282 59.5399 81.3306ZM53.7881 83.446C53.4806 82.1227 53.0042 80.8438 52.3704 79.6405C52.2501 79.0145 52.0559 78.4047 51.7918 77.8239V77.7894C52.214 77.9551 52.619 78.1611 53.0011 78.4045C53.5682 80.0256 54.1006 82.1813 53.7881 83.446ZM46.2656 71.9202C45.7667 71.9344 45.2705 71.998 44.7843 72.1098C44.3426 71.9655 43.8923 71.8484 43.436 71.7592C44.391 71.6653 45.355 71.7294 46.2888 71.9489L46.2656 71.9202ZM38.8994 76.9731C38.6446 77.5291 38.4394 78.1062 38.286 78.6977C37.9173 78.7848 37.56 78.9141 37.2213 79.0829C37.2502 78.8817 37.2792 78.6862 37.3139 78.508C37.8136 77.9671 38.3512 77.4618 38.9225 76.9961L38.8994 76.9731ZM35.7573 89.7982C35.9309 89.9879 36.1045 90.1833 36.2839 90.373L35.9772 90.2466C35.9367 90.1258 35.8557 89.9764 35.7805 89.8212L35.7573 89.7982ZM38.2513 92.9886C38.4423 92.9886 38.6332 92.9599 38.83 92.9312C39.0441 93.1381 39.2755 93.3623 39.5128 93.5807H39.073C38.83 93.3853 38.529 93.2186 38.2513 92.9886ZM47.1973 94.7132C47.3352 94.6495 47.4686 94.5765 47.5965 94.4947C48.6291 94.2867 49.5829 93.797 50.3509 93.0806C50.5595 92.9052 50.753 92.7129 50.9296 92.5058C50.6721 93.0976 50.3072 93.6374 49.8533 94.0981C48.9948 94.3755 48.1139 94.5794 47.2204 94.7075L47.1973 94.7132ZM53.6319 89.2636C54.3007 88.6904 54.913 88.0552 55.4604 87.3665C55.6271 87.155 55.7816 86.9343 55.9233 86.7055C55.7998 87.2895 55.5259 87.8317 55.1283 88.2791C54.7307 88.7264 54.2231 89.0637 53.655 89.2578L53.6319 89.2636Z" fill="#FCFCD4"></path><path d="M71.1708 7.1166C69.3828 3.43752 66.5763 0.517252 62.2017 0.0631158C52.7986 -0.919889 47.394 9.78968 50.9006 17.533C50.9844 18.0089 51.1283 18.4725 51.3288 18.9126C51.5876 19.4936 51.9635 20.0157 52.4332 20.4468C52.903 20.8778 53.4566 21.2087 54.0601 21.419C55.077 22.0891 56.1859 22.61 57.3526 22.9654C57.6522 23.3571 58.0273 23.6856 58.4559 23.9319C58.8846 24.1782 59.3583 24.3372 59.8495 24.3998C60.3406 24.4624 60.8394 24.4273 61.3168 24.2965C61.7941 24.1657 62.2405 23.9418 62.6299 23.638C63.4834 23.5952 64.3285 23.4505 65.1471 23.2068C69.1571 21.9479 72.8084 17.0329 72.9647 12.8996C73.0296 10.8276 72.3985 8.79295 71.1708 7.1166ZM69.2671 14.5092C69.2266 14.3943 69.1803 14.2793 69.134 14.1643C69.0877 14.0494 69.1629 13.9459 69.1745 13.8309C69.2259 13.3559 69.2103 12.876 69.1282 12.4053C69.263 12.0322 69.3619 11.6472 69.4233 11.2556C69.6665 10.8521 69.8516 10.4167 69.973 9.96214C70.2854 10.8881 70.3473 11.8793 70.1524 12.8364C69.9793 13.4498 69.6776 14.0199 69.2671 14.5092ZM59.5631 10.4393C59.3451 10.6152 59.1507 10.818 58.9844 11.0429C59.0376 10.7667 59.1437 10.5032 59.2969 10.2668C59.3901 10.3171 59.4791 10.3748 59.5631 10.4393ZM58.1512 5.47825C57.2004 5.68365 56.3549 6.21986 55.7671 6.99013C55.6884 6.93666 55.6028 6.89411 55.5125 6.86366C55.8766 6.34316 56.3175 5.88003 56.8203 5.48976C57.2629 5.45121 57.7079 5.44736 58.1512 5.47825ZM53.169 16.0211C53.4007 16.5304 53.6858 17.0141 54.0196 17.464C54.1584 17.648 54.3031 17.8089 54.4478 17.9756C54.6406 18.4204 54.8689 18.849 55.1306 19.2576C54.3545 18.6667 53.7168 17.9155 53.2615 17.0559C53.2096 16.7131 53.1787 16.3676 53.169 16.0211Z" fill="#FCFCD4"></path><path d="M120.947 69.9599C120.298 68.9755 119.37 68.2051 118.279 67.7467C115.195 66.3498 110.704 65.5507 108.575 68.8619C108.578 68.8752 108.578 68.8889 108.575 68.9022C108.417 69.0161 108.289 69.1646 108.198 69.3361C108.108 69.5076 108.059 69.6974 108.054 69.8909C107.525 71.2057 107.318 72.6264 107.448 74.0364C107.579 75.4464 108.045 76.8054 108.806 78.0021C109.657 79.3174 110.859 80.3722 112.278 81.0489C112.716 81.359 113.19 81.6157 113.69 81.8134C114.443 82.1276 115.271 82.2194 116.074 82.0779C116.923 82.1491 117.778 82.1221 118.62 81.9974C122.243 81.457 123.828 77.8182 123.996 74.4783C124.083 72.3225 122.735 70.8394 120.947 69.9599ZM113.476 69.4253C113.476 69.3965 113.476 69.3678 113.476 69.339C113.476 69.3103 113.476 69.2873 113.476 69.2643C113.476 69.1378 113.476 69.0171 113.43 68.8964C113.721 68.897 114.011 68.92 114.298 68.9654C114.007 69.0874 113.732 69.2417 113.476 69.4253ZM113.054 78.7092C112.897 78.5598 112.73 78.393 112.562 78.2148C112.692 78.2792 112.825 78.3368 112.961 78.3873C113.21 78.7047 113.496 78.9921 113.812 79.2438L113.615 79.1633C113.427 79.0218 113.248 78.8702 113.077 78.7092H113.054ZM119.65 79.1288C120.016 78.5412 120.342 77.9305 120.628 77.3008C120.84 77.2331 121.024 77.1002 121.155 76.9214C121.045 77.2261 120.918 77.4963 120.79 77.7894C120.541 78.3245 120.156 78.786 119.674 79.1288H119.65ZM121.346 76.3523C121.346 76.3236 121.346 76.2948 121.346 76.2661C121.343 76.0372 121.326 75.8087 121.294 75.582C121.414 75.205 121.511 74.8211 121.583 74.4323C121.62 75.0797 121.548 75.7286 121.369 76.3523H121.346Z" fill="#FCFCD4"></path><path d="M114.587 101.91C111.781 100.427 108.928 99.3983 105.734 100.082C102.867 100.674 100.195 101.971 97.9625 103.853C93.8077 107.561 92.3785 115.638 95.1155 120.49C95.6143 121.371 96.2759 122.151 97.0656 122.789C99.5538 127.601 107.73 129.877 112.388 127.934C115.611 126.589 119.089 124.134 120.53 120.863C120.814 120.204 121.008 119.51 121.109 118.8C121.935 117.774 122.515 116.575 122.804 115.293C124.118 109.343 119.465 104.492 114.587 101.91ZM96.3654 115.184C96.4001 115.448 96.4406 115.707 96.4927 115.96C96.4624 116.12 96.4669 116.285 96.5058 116.444C96.5447 116.602 96.6172 116.751 96.7184 116.88C96.7838 117.075 96.8591 117.267 96.944 117.454C96.7378 117.608 96.5941 117.831 96.539 118.081C96.5363 118.092 96.5363 118.104 96.539 118.116C95.6074 115.345 96.2265 111.867 97.1176 109.28C97.3232 108.677 97.5948 108.099 97.9278 107.555C96.7038 109.905 96.1628 112.546 96.3654 115.184ZM113.378 112.361L113.563 112.517C113.499 112.959 113.418 113.431 113.32 113.913L113.256 113.827C113.32 113.339 113.36 112.856 113.378 112.361ZM110.739 110.505C110.739 110.855 110.664 111.2 110.606 111.545C110.282 111.338 109.964 111.146 109.651 110.97C109.536 110.677 109.414 110.395 109.281 110.108C109.489 109.843 110.149 110.154 110.739 110.505ZM107.979 118.173L108.396 118.351C108.315 118.483 108.234 118.621 108.141 118.748L107.875 118.484L107.684 118.19L107.979 118.173ZM107.638 114.218C107.296 114.333 106.926 114.431 106.55 114.517L106.388 114.379C106.385 114.348 106.385 114.318 106.388 114.287C106.793 114.253 107.215 114.23 107.638 114.218ZM103.06 120.093L102.788 120.013C101.999 119.385 101.349 118.602 100.879 117.713C101.071 117.631 101.252 117.525 101.417 117.397H101.915C102.163 118.134 102.459 118.854 102.8 119.553C102.893 119.725 102.979 119.909 103.06 120.093ZM101.903 106.118C101.845 106.233 101.787 106.354 101.735 106.469C101.431 106.717 101.141 106.982 100.867 107.262C101.171 106.846 101.518 106.462 101.903 106.118ZM99.0098 121.387C98.8355 121 98.7223 120.589 98.6742 120.168C99.5306 121.013 100.569 121.654 101.712 122.042C102.026 122.271 102.355 122.481 102.696 122.668C101.384 122.532 100.122 122.093 99.0098 121.387ZM102.829 124.836H103.274C103.447 125.018 103.641 125.178 103.853 125.313L103.714 125.25C103.408 125.175 103.112 125.031 102.817 124.876L102.829 124.836ZM116.844 107.446C116.506 107.033 116.086 106.693 115.611 106.446C115.768 105.975 115.755 105.466 115.577 105.003C117.371 106.258 118.85 107.906 119.899 109.82C119.157 108.735 118.081 107.916 116.832 107.487L116.844 107.446ZM120.611 114.822C120.57 114.73 120.53 114.643 120.484 114.557C120.716 113.519 120.731 112.445 120.53 111.401C120.867 112.528 120.891 113.723 120.599 114.862L120.611 114.822Z" fill="#FCFCD4"></path><path d="M7.87204 8.78368C5.06558 7.30055 2.21861 6.27156 -0.975554 6.95564C-3.84526 7.54478 -6.51968 8.84158 -8.75264 10.7267C-12.9074 14.4288 -14.3309 22.5113 -11.5938 27.363C-11.0974 28.2461 -10.4355 29.0266 -9.64377 29.6625C-7.15557 34.4798 1.01501 36.7562 5.67895 34.8362C8.90205 33.491 12.374 31.0364 13.8148 27.7654C14.1046 27.1061 14.2994 26.4094 14.3935 25.696C15.2214 24.6736 15.8015 23.4758 16.0889 22.1951C17.4198 16.2166 12.7501 11.359 7.87204 8.78368ZM-10.3555 22.0514C-10.3208 22.3216 -10.2745 22.5802 -10.2224 22.8332C-10.2554 22.9935 -10.2523 23.1591 -10.2133 23.3182C-10.1743 23.4772 -10.1003 23.6257 -9.99675 23.7529C-9.9331 23.9599 -9.85209 24.1553 -9.77686 24.3278C-9.98233 24.4799 -10.126 24.7002 -10.1819 24.9486C-10.1787 24.9619 -10.1787 24.9757 -10.1819 24.9889C-11.1135 22.2181 -10.4944 18.7344 -9.60326 16.1533C-9.39528 15.5517 -9.12373 14.9736 -8.79315 14.4288C-10.0143 16.7769 -10.5552 19.4158 -10.3555 22.0514ZM6.65687 19.2346L6.84204 19.3898C6.77839 19.8324 6.69737 20.298 6.60479 20.7809L6.53536 20.7005C6.60479 20.2176 6.64723 19.7289 6.66266 19.2346H6.65687ZM4.01821 17.3778C4.01821 17.7284 3.94877 18.0734 3.89091 18.4183C3.56686 18.2113 3.24282 18.0159 2.93613 17.8434C2.8204 17.556 2.69889 17.2686 2.5658 16.9869C2.77411 16.711 3.43378 17.0271 4.024 17.3778H4.01821ZM1.25805 25.0464L1.68046 25.2246C1.59945 25.3568 1.51265 25.4948 1.42585 25.6212L1.15967 25.3568L0.962928 25.0636L1.25805 25.0464ZM0.916633 21.0914C0.559402 21.2094 0.196308 21.3092 -0.171227 21.3903L-0.333249 21.2523C-0.333249 21.2178 -0.333249 21.1891 -0.333249 21.1603C0.0602352 21.1258 0.50001 21.1028 0.922426 21.0914H0.916633ZM-3.64314 26.9664L-3.9209 26.8802C-4.70844 26.2509 -5.35824 25.4684 -5.83045 24.5807C-5.63632 24.4988 -5.45354 24.3925 -5.28652 24.2646H-4.79466C-4.54353 25.0021 -4.24788 25.7239 -3.90933 26.426C-3.82253 26.5985 -3.72994 26.7824 -3.63736 26.9664H-3.64314ZM-4.80045 12.9916C-4.85831 13.1066 -4.91618 13.2216 -4.96826 13.3423C-5.26916 13.5895 -5.54691 13.8539 -5.83624 14.1299C-5.524 13.7185 -5.17333 13.3374 -4.78888 12.9916H-4.80045ZM-7.71107 28.2598C-7.88684 27.8737 -8.00011 27.4624 -8.04669 27.0411C-7.19247 27.8866 -6.15549 28.5275 -5.01455 28.9152C-4.69757 29.1434 -4.36714 29.3526 -4.02505 29.5417C-5.3375 29.4057 -6.59976 28.9667 -7.71107 28.2598ZM-3.89197 31.7089H-3.4464C-3.27487 31.8903 -3.08036 32.0488 -2.86775 32.1803L-3.00663 32.1228C-3.30753 32.0481 -3.59685 31.8987 -3.89197 31.7492V31.7089ZM10.1172 14.3138C9.77844 13.9028 9.35911 13.5644 8.88468 13.3193C9.03986 12.849 9.02966 12.3402 8.85575 11.8764C10.6493 13.1277 12.1268 14.7745 13.1725 16.688C12.4323 15.6046 11.3612 14.7864 10.1172 14.354V14.3138ZM13.8842 21.6892L13.7627 21.4305C13.9889 20.392 14.0046 19.3192 13.809 18.2746C14.1505 19.3979 14.1765 20.5925 13.8842 21.7295V21.6892Z" fill="#FCFCD4"></path><path d="M80.14 119.3C80.1734 118.83 80.1637 118.359 80.111 117.891C79.5324 112.505 73.5028 111.039 68.8736 111.436C68.3883 111.475 67.9099 111.576 67.4501 111.735C63.1449 111.844 60.5063 116.765 61.5016 120.967C61.8285 122.19 62.5351 123.281 63.5211 124.083C64.119 125.877 65.4035 127.366 67.0971 128.227C68.3827 128.876 69.8548 129.063 71.2634 128.756C72.9709 128.895 74.6787 128.493 76.1415 127.606C77.5477 126.757 78.6746 125.519 79.3846 124.044C80.0946 122.569 80.3571 120.921 80.14 119.3ZM71.3849 116.058C71.1842 116.139 70.9906 116.237 70.8063 116.351H70.6616C70.6879 116.26 70.7426 116.179 70.8179 116.121C70.9035 116.074 70.9977 116.044 71.095 116.033C71.1924 116.022 71.2909 116.03 71.3849 116.058ZM73.9426 118.541C74.2573 119.154 74.4387 119.826 74.4749 120.513L74.4229 120.662C74.3592 120.823 74.2956 120.99 74.2261 121.151C74.0087 121.024 73.7607 120.959 73.5086 120.961C73.3986 120.674 73.2771 120.386 73.1614 120.116C73.2194 119.655 73.2349 119.189 73.2077 118.725C73.4404 118.623 73.6889 118.561 73.9426 118.541ZM68.3991 116.046C68.347 115.943 68.2949 115.839 68.2371 115.736C68.1501 115.577 68.0248 115.443 67.8725 115.345C68.1962 115.061 68.5538 114.818 68.9372 114.62C68.6767 115.061 68.4947 115.544 68.3991 116.046Z" fill="#FCFCD4"></path><path d="M31.7704 120.312C31.6601 119.894 31.5189 119.484 31.348 119.087C31.7265 117.483 31.4979 115.797 30.7057 114.35C29.0681 111.407 25.0696 109.59 21.6092 108.481C20.3697 107.903 19.0487 107.515 17.6918 107.331C13.2477 106.756 10.3834 109.01 8.84996 112.252C6.97513 114.241 6.09558 117.121 5.73103 119.754C5.15238 123.778 5.60951 127.681 9.17401 130.153C12.455 132.453 17.2057 133.763 21.1 132.521C21.3778 132.429 21.6498 132.326 21.9217 132.217C24.1898 131.98 26.3472 131.122 28.1538 129.739C31.0066 127.52 32.7078 123.916 31.7704 120.312ZM20.1163 117.857H20.0874C19.6032 118.146 19.204 118.556 18.9301 119.047C18.7391 119.047 18.5482 119.047 18.3514 119.047H18.2068C18.199 118.48 18.3711 117.925 18.6986 117.46C19.1816 117.553 19.6558 117.685 20.1163 117.857ZM19.0921 114.563C18.7249 114.605 18.3613 114.674 18.0043 114.77C18.0302 114.635 18.0302 114.497 18.0043 114.362C18.6304 114.289 19.262 114.276 19.8907 114.322C19.6071 114.391 19.3467 114.488 19.0921 114.563ZM19.8617 110.234C21.0008 110.661 22.0756 111.242 23.0559 111.959C21.0179 111.054 18.8822 110.385 16.6907 109.964C17.7522 109.755 18.8515 109.849 19.8617 110.234ZM16.8817 112.327C15.7037 112.616 14.6545 113.283 13.8958 114.224C13.6933 114.327 13.4965 114.431 13.3172 114.546C13.6172 113.711 13.9929 112.905 14.4398 112.137C15.2585 112.099 16.0788 112.163 16.8817 112.327ZM10.7711 113.678C11.0192 113.441 11.2884 113.228 11.5754 113.04C11.4539 113.327 11.3382 113.614 11.2282 113.879C10.8808 114.716 10.5813 115.572 10.3313 116.443L10.0825 116.471C10.1982 115.516 10.4294 114.578 10.7711 113.678ZM10.1924 126.595C11.3799 127.6 12.7742 128.336 14.2777 128.75C14.3762 129.002 14.4902 129.248 14.6191 129.486C13.3841 129.216 12.2268 128.672 11.234 127.894C10.8316 127.509 10.4832 127.072 10.1982 126.595H10.1924ZM21.4704 129.958L20.9322 130.015C21.4588 129.751 21.9622 129.44 22.4309 129.199L22.6508 129.32C22.2712 129.557 21.8769 129.77 21.4704 129.958Z" fill="#FCFCD4"></path></svg>